<?xml version="1.0" encoding="UTF-8"?>
<svg xmlns="http://www.w3.org/2000/svg" xmlns:xlink="http://www.w3.org/1999/xlink" width="882px" height="665px" viewBox="0 0 882 665" version="1.1">
<g id="surface1">
<path style="fill:none;stroke-width:2.778;stroke-linecap:round;stroke-linejoin:round;stroke:rgb(28.235294%,69.803922%,68.235294%);stroke-opacity:1;stroke-miterlimit:4;" d="M 378.124708 112.392211 C 378.124708 114.901222 376.091925 116.933188 373.584928 116.933188 C 371.07491 116.933188 369.042127 114.901222 369.042127 112.392211 C 369.017963 110.755768 369.8788 109.231039 371.295405 108.403759 C 372.708989 107.57648 374.460867 107.57648 375.874451 108.403759 C 377.291055 109.231039 378.148872 110.755768 378.124708 112.392211 Z M 389.42734 184.866694 L 389.42734 57.677056 L 382.160068 51.861948 L 382.160068 15.52507 M 325.326734 74.42493 C 325.326734 76.93394 327.362537 78.968926 329.869535 78.968926 C 332.379553 78.968926 334.412335 76.93394 334.412335 74.42493 C 334.412335 71.915919 332.379553 69.883952 329.869535 69.883952 C 327.362537 69.883952 325.326734 71.915919 325.326734 74.42493 Z M 325.326734 74.42493 " transform="matrix(1.293255,0,0,1.293774,0,0)"/>
<path style="fill:none;stroke-width:2.778;stroke-linecap:round;stroke-linejoin:round;stroke:rgb(28.235294%,69.803922%,68.235294%);stroke-opacity:1;stroke-miterlimit:4;" d="M 341.202372 192.028395 L 341.202372 124.254911 L 329.939006 113.536513 L 329.939006 78.833059 M 375.092147 50.521393 C 375.092147 54.549095 371.827009 57.812923 367.80071 57.812923 C 363.774412 57.812923 360.512295 54.549095 360.512295 50.521393 C 360.512295 46.496711 363.774412 43.232883 367.80071 43.232883 C 371.827009 43.232883 375.092147 46.496711 375.092147 50.521393 Z M 375.092147 50.521393 " transform="matrix(1.293255,0,0,1.293774,0,0)"/>
<path style="fill:none;stroke-width:2.778;stroke-linecap:round;stroke-linejoin:round;stroke:rgb(28.235294%,69.803922%,68.235294%);stroke-opacity:1;stroke-miterlimit:4;" d="M 356.742737 209.666953 L 356.742737 97.012065 L 367.824874 85.931356 L 367.824874 57.767634 M 406.121528 174.797439 L 406.121528 100.004159 L 411.570472 94.554382 L 411.570472 64.364732 M 416.067965 59.34973 C 416.067965 61.855721 414.035183 63.890707 411.525165 63.890707 C 409.018167 63.890707 406.985385 61.855721 406.985385 59.34973 C 406.949139 57.704229 407.806955 56.167422 409.22658 55.337124 C 410.646205 54.503806 412.404124 54.503806 413.823749 55.337124 C 415.243374 56.167422 416.10119 57.704229 416.067965 59.34973 Z M 498.043766 15.757554 C 498.043766 18.266565 496.010984 20.298531 493.503986 20.298531 C 490.993968 20.298531 488.961186 18.266565 488.961186 15.757554 C 488.937022 14.118092 489.797858 12.593362 491.211442 11.766083 C 492.628047 10.941823 494.376904 10.941823 495.793509 11.766083 C 497.207093 12.593362 498.06793 14.118092 498.043766 15.757554 Z M 328.3895 136.301786 C 328.3895 138.810797 326.356718 140.842763 323.8467 140.842763 C 321.339702 140.842763 319.30692 138.810797 319.30692 136.301786 C 319.30692 133.792775 321.339702 131.757789 323.8467 131.757789 C 326.356718 131.757789 328.3895 133.792775 328.3895 136.301786 Z M 323.937314 173.526328 L 323.937314 140.821628 M 307.862325 175.612641 L 307.862325 131.187148 L 319.714684 119.330486 L 319.714684 41.792693 L 308.33956 30.416095 L 308.33956 16.141001 M 278.808337 71.0041 C 278.808337 73.479899 276.799718 75.487711 274.325946 75.487711 C 271.849153 75.487711 269.840535 73.479899 269.840535 71.0041 C 269.840535 68.528301 271.846133 66.520489 274.322926 66.520489 C 276.799718 66.520489 278.805316 68.528301 278.808337 71.0041 Z M 246.679501 42.375411 C 246.679501 44.85121 244.670883 46.856003 242.19409 46.856003 C 239.717297 46.856003 237.711699 44.85121 237.711699 42.375411 C 237.711699 39.896593 239.717297 37.8918 242.19409 37.8918 C 244.670883 37.8918 246.679501 39.896593 246.679501 42.375411 Z M 246.679501 42.375411 " transform="matrix(1.293255,0,0,1.293774,0,0)"/>
<path style="fill:none;stroke-width:2.778;stroke-linecap:round;stroke-linejoin:round;stroke:rgb(28.235294%,69.803922%,68.235294%);stroke-opacity:1;stroke-miterlimit:4;" d="M 313.779443 125.236172 L 307.77171 119.230851 L 307.77171 100.215508 L 281.946615 100.215508 L 274.054103 92.326163 L 273.884956 76.176104 M 202.045883 94.472862 C 202.045883 97.990308 199.194551 100.840496 195.675693 100.840496 C 192.159855 100.840496 189.308523 97.990308 189.308523 94.472862 C 189.308523 90.955416 192.159855 88.105228 195.675693 88.105228 C 199.194551 88.105228 202.045883 90.955416 202.045883 94.472862 Z M 314.936286 8.366389 C 314.963471 10.661031 313.755279 12.792634 311.773845 13.945994 C 309.792411 15.102373 307.342802 15.102373 305.361368 13.945994 C 303.379934 12.792634 302.174763 10.661031 302.201947 8.366389 C 302.244234 4.882155 305.083484 2.080275 308.569117 2.080275 C 312.05475 2.080275 314.890979 4.882155 314.936286 8.366389 Z M 388.518176 8.502256 C 388.518176 12.019702 385.666844 14.86989 382.151006 14.86989 C 378.635169 14.86989 375.783836 12.019702 375.783836 8.502256 C 375.783836 4.98481 378.635169 2.134622 382.151006 2.134622 C 385.666844 2.134622 388.518176 4.98481 388.518176 8.502256 Z M 458.15834 50.219467 C 458.185525 52.51109 456.980354 54.642693 454.998919 55.799072 C 453.017485 56.952432 450.567877 56.952432 448.586442 55.799072 C 446.601988 54.642693 445.396817 52.51109 445.424001 50.219467 C 445.469308 46.732213 448.305538 43.930334 451.791171 43.930334 C 455.276803 43.930334 458.113033 46.732213 458.15834 50.219467 Z M 458.15834 50.219467 " transform="matrix(1.293255,0,0,1.293774,0,0)"/>
<path style="fill:none;stroke-width:2.778;stroke-linecap:round;stroke-linejoin:round;stroke:rgb(28.235294%,69.803922%,68.235294%);stroke-opacity:1;stroke-miterlimit:4;" d="M 292.149793 177.255122 L 292.149793 140.664626 L 263.092785 111.607202 L 210.723719 111.607202 L 199.248919 100.127949 M 421.115186 93.401022 C 421.115186 95.876821 423.120784 97.884633 425.597577 97.884633 C 428.074369 97.884633 430.079967 95.876821 430.079967 93.401022 C 430.079967 90.925223 428.074369 88.92043 425.597577 88.92043 C 423.120784 88.92043 421.115186 90.925223 421.115186 93.401022 Z M 456.376258 149.248402 C 456.376258 151.724201 458.381856 153.728994 460.858649 153.728994 C 463.335441 153.728994 465.34104 151.724201 465.34104 149.248402 C 465.34104 146.769584 463.335441 144.764791 460.858649 144.764791 C 458.381856 144.764791 456.376258 146.769584 456.376258 149.248402 Z M 406.091323 122.618468 L 417.973887 122.618468 L 425.866399 114.726104 L 426.035546 98.576046 M 514.33925 93.020594 C 514.33925 96.53804 517.190582 99.388228 520.70642 99.388228 C 524.222258 99.388228 527.070569 96.53804 527.070569 93.020594 C 527.112856 90.719913 525.907685 88.576234 523.92021 87.413816 C 521.935755 86.251398 519.474065 86.251398 517.48961 87.413816 C 515.502135 88.576234 514.296964 90.719913 514.33925 93.020594 Z M 514.33925 93.020594 " transform="matrix(1.293255,0,0,1.293774,0,0)"/>
<path style="fill:none;stroke-width:2.778;stroke-linecap:round;stroke-linejoin:round;stroke:rgb(28.235294%,69.803922%,68.235294%);stroke-opacity:1;stroke-miterlimit:4;" d="M 423.549692 176.530498 L 423.549692 139.940002 L 452.603679 110.882578 L 504.972745 110.882578 L 516.450565 99.403325 M 242.148783 111.522662 L 242.148783 48.039556 M 452.153628 109.708083 L 452.153628 56.38481 M 451.791171 90.119079 L 477.359526 90.119079 L 493.410351 74.068656 L 493.410351 19.927162 M 591.998786 129.309164 C 589.491789 129.309164 587.459007 131.344149 587.459007 133.85316 C 587.459007 136.359152 589.491789 138.394138 591.998786 138.394138 C 594.508805 138.394138 596.541587 136.359152 596.541587 133.85316 C 596.541587 131.344149 594.508805 129.309164 591.998786 129.309164 Z M 565.388366 380.705404 C 562.908553 380.705404 560.902955 382.713217 560.902955 385.189016 C 560.902955 387.664814 562.908553 389.672627 565.388366 389.672627 C 567.865159 389.672627 569.870757 387.664814 569.870757 385.189016 C 569.870757 382.713217 567.865159 380.705404 565.388366 380.705404 Z M 513.088772 408.044866 C 509.572934 408.047885 506.721602 410.898073 506.721602 414.4125 C 506.694418 416.707143 507.899589 418.838745 509.881023 419.995125 C 511.862457 421.148484 514.312066 421.148484 516.2935 419.995125 C 518.277955 418.838745 519.483126 416.707143 519.455942 414.4125 C 519.455942 410.898073 516.60461 408.047885 513.088772 408.044866 Z M 557.544182 169.199718 C 554.025324 169.199718 551.173992 172.052925 551.173992 175.567352 C 551.177012 179.084798 554.028345 181.934986 557.544182 181.934986 C 561.06002 181.934986 563.911352 179.084798 563.911352 175.567352 C 563.911352 172.049906 561.06002 169.199718 557.544182 169.199718 Z M 430.520957 335.229206 L 467.10802 335.229206 L 496.158987 364.286631 L 496.158987 401.354171 L 507.636807 410.424048 M 497.491018 153.076833 C 493.975181 153.076833 491.123848 150.226645 491.123848 146.709199 C 491.123848 143.191753 493.975181 140.341565 497.491018 140.341565 C 501.009876 140.341565 503.858188 143.191753 503.858188 146.709199 C 503.858188 150.226645 501.009876 153.076833 497.491018 153.076833 Z M 431.245872 203.812594 L 467.832935 203.812594 L 496.883902 174.755169 L 496.883902 153.599166 M 496.246581 385.234305 L 559.718927 385.234305 M 498.058868 175.20504 L 551.376364 175.20504 " transform="matrix(1.293255,0,0,1.293774,0,0)"/>
<path style="fill:none;stroke-width:2.778;stroke-linecap:round;stroke-linejoin:round;stroke:rgb(28.235294%,69.803922%,68.235294%);stroke-opacity:1;stroke-miterlimit:4;" d="M 517.646675 175.567352 L 517.646675 149.994161 L 533.6975 133.943738 L 587.827505 133.943738 M 280.394088 253.784481 L 224.983401 253.784481 M 219.081385 249.240484 C 221.588382 249.240484 223.621165 251.272451 223.624185 253.781461 C 223.624185 256.290472 221.591403 258.322439 219.081385 258.325458 C 216.601571 258.286208 214.608055 256.266318 214.608055 253.784481 C 214.608055 251.299624 216.598551 249.276715 219.081385 249.240484 Z M 291.545697 237.939368 L 164.371448 237.939368 L 158.560046 245.206743 L 62.557141 245.206743 M 181.116984 302.044443 C 182.757104 302.068597 184.282446 301.208106 185.107037 299.795089 C 185.934648 298.379053 185.934648 296.627878 185.107037 295.211842 C 184.282446 293.798825 182.757104 292.938334 181.116984 292.962488 C 178.63717 292.998719 176.643654 295.021628 176.643654 297.503466 C 176.643654 299.985303 178.63717 302.008212 181.116984 302.044443 Z M 6.542358 272.120489 C 9.049355 272.120489 11.082138 270.085503 11.082138 267.576492 C 11.082138 265.0705 9.049355 263.035515 6.542358 263.035515 C 4.032339 263.035515 1.999557 265.0705 1.999557 267.576492 C 1.999557 270.085503 4.032339 272.120489 6.542358 272.120489 Z M 6.542358 272.120489 " transform="matrix(1.293255,0,0,1.293774,0,0)"/>
<path style="fill:none;stroke-width:2.778;stroke-linecap:round;stroke-linejoin:round;stroke:rgb(28.235294%,69.803922%,68.235294%);stroke-opacity:1;stroke-miterlimit:4;" d="M 298.707253 286.169138 L 230.942806 286.169138 L 220.223126 297.434023 L 185.523863 297.434023 M 157.218954 252.274847 C 161.245252 252.274847 164.50737 255.538675 164.50737 259.566377 C 164.50737 263.59106 161.245252 266.854887 157.218954 266.854887 C 153.192655 266.854887 149.927517 263.59106 149.927517 259.566377 C 149.927517 255.538675 153.192655 252.274847 157.218954 252.274847 Z M 157.218954 252.274847 " transform="matrix(1.293255,0,0,1.293774,0,0)"/>
<path style="fill:none;stroke-width:2.778;stroke-linecap:round;stroke-linejoin:round;stroke:rgb(28.235294%,69.803922%,68.235294%);stroke-opacity:1;stroke-miterlimit:4;" d="M 316.340809 270.625952 L 203.704126 270.625952 L 192.621988 259.542223 L 164.462062 259.542223 M 281.47844 221.242822 L 206.69138 221.242822 L 201.242436 215.793045 L 171.058789 215.793045 M 166.041773 211.294337 C 168.551791 211.294337 170.584573 213.329323 170.584573 215.838334 C 170.584573 218.347345 168.551791 220.379312 166.041773 220.379312 C 163.534775 220.379312 161.501993 218.347345 161.501993 215.838334 C 161.498973 213.329323 163.534775 211.294337 166.041773 211.294337 Z M 122.456261 129.309164 C 124.966279 129.309164 126.999061 131.344149 126.999061 133.85316 C 126.999061 136.359152 124.966279 138.394138 122.456261 138.394138 C 119.949263 138.394138 117.916481 136.359152 117.916481 133.85316 C 117.916481 131.344149 119.949263 129.309164 122.456261 129.309164 Z M 242.988476 298.982906 C 245.495474 298.982906 247.528256 301.017892 247.528256 303.526903 C 247.528256 306.035914 245.495474 308.067881 242.988476 308.067881 C 240.478458 308.067881 238.445676 306.035914 238.445676 303.526903 C 238.445676 301.017892 240.478458 298.982906 242.988476 298.982906 Z M 280.206819 303.436325 L 247.507113 303.436325 M 282.29397 319.513922 L 237.871785 319.513922 L 226.019425 307.65726 L 148.489769 307.65726 L 137.111625 319.036877 L 84.884522 319.036877 M 177.694781 348.571346 C 180.171574 348.571346 182.180192 350.579159 182.180192 353.054958 C 182.177172 355.533776 180.171574 357.538569 177.694781 357.538569 C 175.217988 357.538569 173.20937 355.530757 173.21239 353.054958 C 173.21239 350.57614 175.221009 348.571346 177.694781 348.571346 Z M 149.069701 380.705404 C 151.546494 380.705404 153.555113 382.713217 153.555113 385.189016 C 153.555113 387.664814 151.546494 389.672627 149.069701 389.672627 C 146.592909 389.672627 144.58429 387.664814 144.58429 385.189016 C 144.58429 382.713217 146.592909 380.705404 149.069701 380.705404 Z M 149.069701 380.705404 " transform="matrix(1.293255,0,0,1.293774,0,0)"/>
<path style="fill:none;stroke-width:2.778;stroke-linecap:round;stroke-linejoin:round;stroke:rgb(28.235294%,69.803922%,68.235294%);stroke-opacity:1;stroke-miterlimit:4;" d="M 231.924461 313.596158 L 225.916729 319.6045 L 206.908854 319.6045 L 206.908854 345.434328 L 199.016342 353.323672 L 182.868862 353.492751 M 201.163903 425.342246 C 203.456447 425.315073 205.588905 426.52278 206.745748 428.503419 C 207.899571 430.484058 207.899571 432.935703 206.745748 434.916342 C 205.588905 436.9 203.456447 438.107707 201.163903 438.077514 C 197.67827 438.035244 194.875266 435.197133 194.875266 431.70988 C 194.875266 428.225646 197.67827 425.387535 201.163903 425.342246 Z M 78.227386 312.439779 C 81.743224 312.439779 84.594556 315.289967 84.594556 318.807413 C 84.594556 322.324859 81.743224 325.175047 78.224366 325.175047 C 74.708528 325.175047 71.857196 322.324859 71.857196 318.807413 C 71.857196 315.289967 74.708528 312.439779 78.227386 312.439779 Z M 93.501949 404.986349 C 95.797513 404.956156 97.929971 406.163863 99.083794 408.147521 C 100.240637 410.12816 100.237617 412.579805 99.083794 414.560444 C 97.92695 416.544102 95.794492 417.74879 93.501949 417.721617 C 90.016316 417.676328 87.213311 414.838217 87.213311 411.353983 C 87.213311 407.866729 90.016316 405.028618 93.501949 404.986349 Z M 55.507343 238.848167 C 57.799887 238.817975 59.932345 240.025681 61.086168 242.00934 C 62.243011 243.989979 62.239991 246.441624 61.086168 248.422263 C 59.929324 250.402902 57.796866 251.610609 55.504323 251.583435 C 52.01869 251.538146 49.215685 248.700035 49.215685 245.212782 C 49.218706 241.728548 52.02171 238.890437 55.507343 238.848167 Z M 117.692965 169.199718 C 121.208803 169.199718 124.060135 172.052925 124.060135 175.570371 C 124.057115 179.084798 121.205782 181.938005 117.689945 181.934986 C 114.174107 181.934986 111.322775 179.084798 111.322775 175.567352 C 111.322775 172.049906 114.174107 169.199718 117.692965 169.199718 Z M 64.517432 106.069866 C 68.03327 106.072885 70.884602 108.923073 70.881581 112.440519 C 70.881581 115.957965 68.030249 118.808153 64.514411 118.808153 C 60.995553 118.805134 58.147242 115.954946 58.147242 112.4375 C 58.147242 108.920054 60.998574 106.069866 64.517432 106.069866 Z M 241.423868 135.62547 C 244.939706 135.62547 247.791038 138.475658 247.791038 141.993104 C 247.791038 145.507531 244.939706 148.357719 241.423868 148.357719 C 237.90803 148.357719 235.056698 145.507531 235.056698 141.993104 C 235.056698 138.475658 237.90803 135.62547 241.423868 135.62547 Z M 241.423868 135.62547 " transform="matrix(1.293255,0,0,1.293774,0,0)"/>
<path style="fill:none;stroke-width:2.778;stroke-linecap:round;stroke-linejoin:round;stroke:rgb(28.235294%,69.803922%,68.235294%);stroke-opacity:1;stroke-miterlimit:4;" d="M 283.93711 335.229206 L 247.350048 335.229206 L 218.29606 364.286631 L 218.29606 416.661854 L 206.81824 428.141107 M 200.091633 206.249142 C 202.568426 206.249142 204.577044 204.24133 204.574024 201.765531 C 204.574024 199.289732 202.565405 197.28192 200.088613 197.28192 C 197.639004 197.318151 195.672672 199.316906 195.672672 201.765531 C 195.675693 204.217176 197.642025 206.212911 200.091633 206.249142 Z M 229.302686 221.273015 L 229.302686 209.38918 L 221.413194 201.496816 L 205.265714 201.324718 M 283.212195 203.812594 L 246.625133 203.812594 L 217.571145 174.755169 L 217.571145 142.228607 L 234.171698 141.993104 M 218.211487 385.234305 L 154.73612 385.234305 M 216.396179 175.20504 L 124.449777 175.20504 M 196.811393 175.567352 L 196.811393 149.994161 L 180.760567 133.943738 L 126.627542 133.943738 M 448.746528 253.784481 L 504.157215 253.784481 M 510.059232 249.240484 C 507.549213 249.240484 505.516431 251.27547 505.516431 253.781461 C 505.516431 256.290472 507.549213 258.325458 510.059232 258.325458 C 512.566229 258.325458 514.599011 256.290472 514.599011 253.781461 C 514.599011 251.27547 512.566229 249.240484 510.059232 249.240484 Z M 437.594919 237.939368 L 564.766148 237.939368 L 570.58057 245.206743 L 666.580455 245.206743 M 548.020612 302.044443 C 545.513614 302.044443 543.480832 300.012477 543.480832 297.503466 C 543.480832 294.994455 545.513614 292.962488 548.023632 292.962488 C 550.53063 292.962488 552.563412 294.997474 552.563412 297.506485 C 552.563412 300.012477 550.527609 302.044443 548.020612 302.044443 Z M 548.020612 302.044443 " transform="matrix(1.293255,0,0,1.293774,0,0)"/>
<path style="fill:none;stroke-width:2.778;stroke-linecap:round;stroke-linejoin:round;stroke:rgb(28.235294%,69.803922%,68.235294%);stroke-opacity:1;stroke-miterlimit:4;" d="M 430.433363 286.169138 L 498.19479 286.169138 L 508.91749 297.434023 L 543.613733 297.434023 M 571.921662 252.274847 C 567.895364 252.274847 564.633247 255.538675 564.633247 259.566377 C 564.633247 263.59106 567.895364 266.854887 571.921662 266.854887 C 575.947961 266.854887 579.213099 263.59106 579.213099 259.566377 C 579.213099 255.538675 575.947961 252.274847 571.921662 252.274847 Z M 571.921662 252.274847 " transform="matrix(1.293255,0,0,1.293774,0,0)"/>
<path style="fill:none;stroke-width:2.778;stroke-linecap:round;stroke-linejoin:round;stroke:rgb(28.235294%,69.803922%,68.235294%);stroke-opacity:1;stroke-miterlimit:4;" d="M 412.796786 270.625952 L 525.43649 270.625952 L 536.518628 259.542223 L 564.678554 259.542223 M 447.662176 221.242822 L 522.446216 221.242822 L 527.898181 215.793045 L 558.081828 215.793045 M 563.095823 211.294337 C 560.588825 211.294337 558.556043 213.329323 558.556043 215.838334 C 558.556043 218.347345 560.588825 220.379312 563.095823 220.379312 C 565.605841 220.379312 567.638623 218.347345 567.638623 215.838334 C 567.638623 213.329323 565.605841 211.294337 563.095823 211.294337 Z M 486.15214 298.982906 C 483.642122 298.982906 481.60934 301.017892 481.60934 303.526903 C 481.60934 306.035914 483.645142 308.067881 486.15214 308.067881 C 488.662158 308.067881 490.69494 306.035914 490.69494 303.526903 C 490.69494 301.017892 488.662158 298.982906 486.15214 298.982906 Z M 448.930777 303.436325 L 481.633503 303.436325 M 446.846646 319.513922 L 491.265811 319.513922 L 503.121191 307.65726 L 580.650847 307.65726 L 592.028991 319.036877 L 644.253074 319.036877 M 551.442815 348.571346 C 548.969042 348.571346 546.960424 350.579159 546.960424 353.054958 C 546.960424 355.533776 548.969042 357.538569 551.445835 357.538569 C 553.922628 357.538569 555.928226 355.530757 555.928226 353.054958 C 555.928226 350.57614 553.919607 348.571346 551.442815 348.571346 Z M 551.442815 348.571346 " transform="matrix(1.293255,0,0,1.293774,0,0)"/>
<path style="fill:none;stroke-width:2.778;stroke-linecap:round;stroke-linejoin:round;stroke:rgb(28.235294%,69.803922%,68.235294%);stroke-opacity:1;stroke-miterlimit:4;" d="M 497.216155 313.596158 L 503.220867 319.6045 L 522.231762 319.6045 L 522.231762 345.434328 L 530.124274 353.323672 L 546.271755 353.492751 M 650.91323 312.439779 C 647.397392 312.439779 644.54606 315.289967 644.54606 318.807413 C 644.54606 322.324859 647.397392 325.175047 650.91625 325.175047 C 654.432088 325.175047 657.28342 322.324859 657.28342 318.807413 C 657.28342 315.289967 654.432088 312.439779 650.91323 312.439779 Z M 673.633273 238.848167 C 671.337709 238.817975 669.208271 240.025681 668.051428 242.00934 C 666.897605 243.989979 666.897605 246.441624 668.054448 248.422263 C 669.208271 250.402902 671.34073 251.610609 673.636294 251.583435 C 677.121926 251.538146 679.92191 248.700035 679.92191 245.212782 C 679.92191 241.728548 677.118906 238.890437 673.633273 238.848167 Z M 529.048983 206.249142 C 526.57219 206.249142 524.563572 204.24133 524.563572 201.765531 C 524.566592 199.289732 526.57219 197.28192 529.048983 197.28192 C 531.498592 197.318151 533.467944 199.316906 533.464923 201.765531 C 533.464923 204.217176 531.498592 206.212911 529.048983 206.249142 Z M 499.83491 221.273015 L 499.83491 209.38918 L 507.727422 201.496816 L 523.874903 201.324718 M 373.584928 367.067375 L 373.584928 422.483 M 378.124708 428.385667 C 378.124708 425.876656 376.091925 423.84469 373.584928 423.84469 C 371.07491 423.84469 369.042127 425.876656 369.042127 428.385667 C 369.042127 430.894678 371.07793 432.926645 373.584928 432.926645 C 376.091925 432.926645 378.127728 430.891659 378.124708 428.385667 Z M 389.42734 355.911184 L 389.42734 435.363193 L 382.160068 441.178301 L 382.160068 459.937007 M 325.326734 466.352949 C 325.302571 464.713487 326.163407 463.188757 327.580012 462.361478 C 328.993596 461.534199 330.745474 461.534199 332.159058 462.361478 C 333.575663 463.188757 334.436499 464.713487 334.412335 466.34993 C 334.373069 468.831767 332.352369 470.824483 329.869535 470.827502 C 327.386701 470.827502 325.366001 468.834786 325.326734 466.352949 Z M 303.618552 507.457249 C 303.618552 504.948238 305.651334 502.916271 308.161352 502.916271 C 310.66835 502.916271 312.704152 504.948238 312.704152 507.457249 C 312.704152 509.966259 310.66835 512.001245 308.161352 512.001245 C 305.651334 512.001245 303.618552 509.966259 303.618552 507.457249 Z M 303.618552 507.457249 " transform="matrix(1.293255,0,0,1.293774,0,0)"/>
<path style="fill:none;stroke-width:2.778;stroke-linecap:round;stroke-linejoin:round;stroke:rgb(28.235294%,69.803922%,68.235294%);stroke-opacity:1;stroke-miterlimit:4;" d="M 341.202372 348.749483 L 341.202372 416.522968 L 329.939006 427.241365 L 329.939006 461.944819 M 375.092147 490.256485 C 375.122352 487.629723 373.738972 485.193174 371.473613 483.870735 C 369.205233 482.548297 366.402229 482.548297 364.133849 483.870735 C 361.865469 485.193174 360.48209 487.629723 360.512295 490.256485 C 360.48209 492.880228 361.865469 495.316776 364.133849 496.639215 C 366.402229 497.961654 369.205233 497.961654 371.473613 496.639215 C 373.738972 495.316776 375.122352 492.880228 375.092147 490.256485 Z M 375.092147 490.256485 " transform="matrix(1.293255,0,0,1.293774,0,0)"/>
<path style="fill:none;stroke-width:2.778;stroke-linecap:round;stroke-linejoin:round;stroke:rgb(28.235294%,69.803922%,68.235294%);stroke-opacity:1;stroke-miterlimit:4;" d="M 356.742737 331.113945 L 356.742737 443.762794 L 367.824874 454.846523 L 367.824874 483.010244 M 406.121528 365.980439 L 406.121528 440.773719 L 411.570472 446.223496 L 411.570472 476.413146 M 416.067965 481.428148 C 416.067965 478.922157 414.035183 476.887171 411.525165 476.887171 C 409.018167 476.887171 406.985385 478.922157 406.985385 481.428148 C 406.949139 483.073649 407.806955 484.610456 409.22658 485.440754 C 410.646205 486.274072 412.404124 486.274072 413.823749 485.440754 C 415.243374 484.610456 416.10119 483.073649 416.067965 481.428148 Z M 387.056264 465.19657 C 387.080428 463.560127 386.219591 462.035397 384.806007 461.208118 C 383.389403 460.380839 381.640545 460.380839 380.223941 461.208118 C 378.810356 462.035397 377.94952 463.560127 377.973684 465.19657 C 377.973684 467.70558 380.006466 469.740566 382.516484 469.740566 C 385.023482 469.740566 387.056264 467.70558 387.056264 465.19657 Z M 328.3895 404.476093 C 328.3895 401.967082 326.356718 399.935115 323.8467 399.935115 C 321.339702 399.935115 319.30692 401.967082 319.30692 404.476093 C 319.30692 406.985103 321.339702 409.01707 323.8467 409.01707 C 326.356718 409.01707 328.3895 406.985103 328.3895 404.476093 Z M 323.937314 367.251551 L 323.937314 399.95625 M 307.862325 365.165237 L 307.862325 409.590731 L 319.714684 421.447392 L 319.714684 476.911325 L 308.33956 488.290942 L 308.33956 502.559998 M 278.808337 469.773778 C 278.808337 467.297979 276.799718 465.293186 274.325946 465.290167 C 271.849153 465.290167 269.840535 467.297979 269.840535 469.773778 C 269.840535 472.249577 271.849153 474.25739 274.322926 474.25739 C 276.799718 474.25739 278.808337 472.249577 278.808337 469.773778 Z M 278.808337 469.773778 " transform="matrix(1.293255,0,0,1.293774,0,0)"/>
<path style="fill:none;stroke-width:2.778;stroke-linecap:round;stroke-linejoin:round;stroke:rgb(28.235294%,69.803922%,68.235294%);stroke-opacity:1;stroke-miterlimit:4;" d="M 313.779443 415.538687 L 307.77171 421.547028 L 307.77171 440.559352 L 281.946615 440.559352 L 274.054103 448.451715 L 273.884956 464.601774 M 249.240868 381.402855 C 249.240868 377.888428 246.389536 375.03824 242.873698 375.03824 C 239.35786 375.03824 236.506528 377.888428 236.506528 381.402855 C 236.506528 384.920301 239.35786 387.770489 242.873698 387.770489 C 246.389536 387.770489 249.240868 384.920301 249.240868 381.402855 Z M 249.240868 381.402855 " transform="matrix(1.293255,0,0,1.293774,0,0)"/>
<path style="fill:none;stroke-width:2.778;stroke-linecap:round;stroke-linejoin:round;stroke:rgb(28.235294%,69.803922%,68.235294%);stroke-opacity:1;stroke-miterlimit:4;" d="M 292.149793 363.522756 L 292.149793 400.113252 L 263.092785 429.170677 L 242.51124 429.170677 L 242.873698 387.933529 M 421.115186 447.376856 C 421.115186 444.901057 423.120784 442.893245 425.597577 442.893245 C 428.071349 442.893245 430.079967 444.898038 430.079967 447.373837 C 430.079967 449.849636 428.074369 451.857448 425.597577 451.857448 C 423.120784 451.857448 421.115186 449.849636 421.115186 447.373837 Z M 450.570897 408.428313 C 450.634327 405.997803 452.624823 404.059434 455.056308 404.059434 C 457.487794 404.059434 459.475269 405.997803 459.538699 408.428313 C 459.562863 410.04664 458.714109 411.550235 457.315627 412.368456 C 455.920165 413.183658 454.192451 413.183658 452.79397 412.368456 C 451.398508 411.550235 450.546733 410.04664 450.570897 408.428313 Z M 406.091323 418.15941 L 417.973887 418.15941 L 425.866399 426.051774 L 426.035546 442.201833 M 512.865257 446.486172 C 512.835052 444.19153 514.043243 442.059927 516.024678 440.903548 C 518.006112 439.750188 520.45572 439.750188 522.437155 440.903548 C 524.421609 442.059927 525.62678 444.19153 525.599596 446.486172 C 525.554289 449.970406 522.718059 452.775305 519.232426 452.775305 C 515.746794 452.775305 512.907543 449.970406 512.865257 446.486172 Z M 512.865257 446.486172 " transform="matrix(1.293255,0,0,1.293774,0,0)"/>
<path style="fill:none;stroke-width:2.778;stroke-linecap:round;stroke-linejoin:round;stroke:rgb(28.235294%,69.803922%,68.235294%);stroke-opacity:1;stroke-miterlimit:4;" d="M 423.549692 364.24738 L 423.549692 400.837876 L 452.603679 429.895301 L 504.972745 429.895301 L 516.450565 441.374554 " transform="matrix(1.293255,0,0,1.293774,0,0)"/>
<path style="fill:none;stroke-width:2.778;stroke-linecap:round;stroke-linejoin:round;stroke:rgb(28.235294%,69.803922%,68.235294%);stroke-opacity:1;stroke-miterlimit:4;" d="M 424.04505 380.678231 L 455.056308 380.678231 L 455.056308 402.444126 M 423.863822 148.88609 L 456.868596 148.88609 M 112.307451 245.538863 L 103.297362 267.576492 L 11.242223 267.576492 M 187.121696 385.889485 L 170.672167 411.746487 L 100.162105 411.746487 M 155.001922 133.007766 L 142.663265 111.851762 L 70.981257 111.851762 " transform="matrix(1.293255,0,0,1.293774,0,0)"/>
</g>
</svg>
