<svg width="100" height="100" viewBox="0 0 100 100" fill="none" xmlns="http://www.w3.org/2000/svg">
<g clip-path="url(#clip0_364_85)">
<path d="M94.7834 25.2752L51.0334 0.275197C50.7188 0.0950297 50.3626 0.000244141 50.0001 0.000244141C49.6376 0.000244141 49.2814 0.0950297 48.9668 0.275197L5.2168 25.2752C4.8979 25.4573 4.63282 25.7205 4.44843 26.0381C4.26403 26.3557 4.16687 26.7164 4.1668 27.0836V72.917C4.1668 73.6629 4.5668 74.3545 5.2168 74.7254L48.9668 99.7254C49.2877 99.9088 49.6418 100 50.0002 100C50.3586 100 50.7127 99.9088 51.0336 99.7254L94.7836 74.7254C95.1025 74.5433 95.3676 74.2801 95.552 73.9625C95.7364 73.6449 95.8335 73.2842 95.8336 72.917V27.0836C95.8334 26.7164 95.7362 26.3557 95.5518 26.0381C95.3674 25.7205 95.1023 25.4573 94.7834 25.2752Z" fill="#66CDAA"/>
</g>
<path d="M67.1631 68H60.8154V59.4062H38.501V68H32.1533V50.4951C32.1533 47.9398 32.5928 45.5879 33.4717 43.4395C34.3506 41.291 35.5713 39.4437 37.1338 37.8975C38.6963 36.3512 40.5436 35.1468 42.6758 34.2842C44.8079 33.4215 47.1354 32.9902 49.6582 32.9902H63.9648C64.4043 32.9902 64.8193 33.0716 65.21 33.2344C65.6006 33.3971 65.9424 33.625 66.2354 33.918C66.5283 34.2109 66.7562 34.5527 66.9189 34.9434C67.0817 35.334 67.1631 35.749 67.1631 36.1885V68ZM38.501 53.0586H60.8154V39.3379H49.6582C49.4629 39.3379 49.0479 39.3704 48.4131 39.4355C47.7946 39.4844 47.0703 39.6227 46.2402 39.8506C45.4264 40.0785 44.5638 40.4284 43.6523 40.9004C42.7409 41.3724 41.9027 42.0234 41.1377 42.8535C40.3727 43.6836 39.738 44.7253 39.2334 45.9785C38.7451 47.2155 38.501 48.721 38.501 50.4951V53.0586Z" fill="white"/>
<defs>
<clipPath id="clip0_364_85">
<rect width="100" height="100" fill="white"/>
</clipPath>
</defs>
</svg>
